<!--?xml version="1.0" standalone="no"?-->
              <svg id="sw-js-blob-svg" viewBox="0 0 100 100" xmlns="http://www.w3.org/2000/svg" version="1.1">
                    <defs> 
                        <linearGradient id="sw-gradient" x1="0" x2="1" y1="1" y2="0">
                            <stop id="stop1" stop-color="rgba(248, 117, 55, 1)" offset="0%"></stop>
                            <stop id="stop2" stop-color="rgba(251, 168, 31, 1)" offset="100%"></stop>
                        </linearGradient>
                    </defs>
                <path fill="url(#sw-gradient)" d="M24.4,-27.4C31.6,-22.9,37.7,-15.3,40.2,-6.3C42.7,2.7,41.8,13.1,36.2,19.3C30.7,25.4,20.6,27.2,11.8,28.9C3,30.5,-4.6,32,-12.4,30.6C-20.1,29.3,-28,25,-31.1,18.5C-34.2,12,-32.5,3.3,-30.9,-5.4C-29.3,-14.1,-27.9,-22.8,-22.8,-27.6C-17.6,-32.4,-8.8,-33.4,-0.1,-33.2C8.5,-33.1,17.1,-31.8,24.4,-27.4Z" width="100%" height="100%" transform="translate(50 50)" stroke-width="0" style="transition: 0.3s;" stroke="url(#sw-gradient)"></path>
              </svg>